<svg id="Layer_1" data-name="Layer 1" xmlns="http://www.w3.org/2000/svg" viewBox="0 0 24 24"><title>cloud, upload, storage, memory, data</title><path d="M20.57,9.43A8,8,0,0,0,5.26,10,5,5,0,1,0,5,20h5V18H5a3,3,0,0,1,0-6,3.1,3.1,0,0,1,.79.12l1.12.31.14-1.15a6,6,0,0,1,11.74-.82l.15.54.54.16A3.46,3.46,0,0,1,22,14.5,3.5,3.5,0,0,1,18.5,18H16v2h2.5A5.48,5.48,0,0,0,20.57,9.43Z" id="id_101" style="fill: rgb(56, 178, 172);"></path><polygon points="16.71 15.29 13 11.59 9.29 15.29 10.71 16.71 12 15.41 12 20 14 20 14 15.41 15.29 16.71 16.71 15.29" id="id_102" style="fill: rgb(56, 178, 172);"></polygon></svg>